<?xml version="1.0" encoding="UTF-8"?>
<svg id="Layer_1" data-name="Layer 1" xmlns="http://www.w3.org/2000/svg" viewBox="0 0 477.82 365.55">
  <defs>
    <style>
      .cls-1 {
        fill: #296eb6;
      }

      .cls-2 {
        fill: #11284b;
      }
    </style>
  </defs>
  <path class="cls-2" d="M236.01,365.36l-98.45.19-20.64-.03,7.95-1.16,26.27-1.82,53.88-5.16c11.48-1.1,22.14-4.45,31.65-11.19,12.89-9.13,22.08-24.12,22.1-40.68l.28-176.3c18.23-13.7,33.79-29.72,48-47.67l20.19,12.79,1.46-24.08,149.11.08-41.05,58.56-110.35.09c-6.22,1.14-10.35,5.41-10.62,11.61l.05,47.73h120.92s-39.96,57.67-39.96,57.67l-80.93.05-.11,46.36c-.81,23.61-12.27,44.55-31.28,58.33-14.3,9.89-30.39,14.6-48.48,14.64Z"/>
  <g>
    <path class="cls-1" d="M110.94,339.46h-37.63c-7.51,0-13.6-6.09-13.6-13.6v-49.16l51.23-10.82v73.58Z"/>
    <polygon class="cls-1" points="176.11 337.72 125.49 337.72 125.49 223.14 176.11 201.5 176.11 337.72"/>
    <path class="cls-1" d="M212.37,337.11h-21.1v-161.57l50.31-27.05v159.41c0,16.13-13.08,29.2-29.2,29.2Z"/>
  </g>
  <path class="cls-1" d="M237.65,23.04L311.61,0l3.64,72.75-24.25-14.55S230.59,186.28,0,226.74c.76-.13,7.86-4.73,9.96-5.8,11.97-6.1,24.14-11.83,36.24-17.68,40.07-19.4,80.88-40.46,118.13-65.82,19.37-13.19,37.91-27.6,55.18-43.45,15.99-14.68,36.08-31.94,41.15-54.06-7.77-5.45-15.36-11.24-23.01-16.88Z"/>
</svg>